<?xml version="1.0" standalone="no"?>
<!DOCTYPE svg PUBLIC "-//W3C//DTD SVG 20010904//EN"
 "http://www.w3.org/TR/2001/REC-SVG-20010904/DTD/svg10.dtd">
<svg version="1.0" xmlns="http://www.w3.org/2000/svg"
 width="130.000000pt" height="94.000000pt" viewBox="0 0 130.000000 94.000000"
 preserveAspectRatio="xMidYMid meet">

<g transform="translate(0.000000,94.000000) scale(0.100000,-0.100000)"
fill="#000000" stroke="none">
<path d="M0 470 l0 -470 650 0 650 0 0 470 0 470 -650 0 -650 0 0 -470z m1078
404 c24 -17 30 -65 10 -81 -30 -23 -49 -23 -74 2 -23 23 -32 25 -120 25 l-95
0 -17 -30 c-17 -29 -19 -30 -87 -28 l-70 2 68 5 c63 6 69 8 87 39 l20 32 94 0
c88 0 97 2 120 25 29 29 34 30 64 9z m-502 -129 c9 -8 12 -15 8 -15 -4 0 1 -6
12 -14 16 -12 19 -27 19 -103 0 -78 -3 -93 -27 -135 -65 -110 -191 -162 -307
-127 -42 12 -89 44 -80 54 4 3 14 -1 22 -10 18 -17 43 -20 52 -5 3 6 1 10 -6
10 -10 0 -10 3 -1 12 9 9 16 5 32 -15 12 -15 26 -27 31 -27 5 0 9 25 9 56 0
56 0 56 -27 51 l-28 -6 28 12 c15 6 27 17 27 24 0 18 17 16 24 -2 6 -17 81
-21 90 -6 4 5 9 30 12 55 l7 46 -39 0 c-44 0 -36 17 11 22 26 3 30 6 27 30 -2
15 0 33 5 40 5 8 10 -1 13 -27 5 -39 6 -40 49 -43 24 -2 47 0 52 5 13 13 -1
80 -22 102 -29 31 -22 46 7 16z m468 -44 c21 -39 68 -46 98 -14 23 25 67 30
86 11 39 -39 -12 -112 -60 -87 -13 6 -27 18 -31 25 -4 8 -23 14 -42 14 -27 0
-37 6 -54 35 -20 35 -21 35 -89 35 -64 0 -70 -2 -80 -25 -11 -25 -13 -25 -129
-23 l-118 2 112 3 c105 3 112 5 127 28 15 23 23 25 91 25 72 0 75 -1 89 -29z
m-78 -79 c45 -30 30 -95 -23 -100 -25 -3 -35 2 -48 22 -16 25 -21 26 -143 29
l-127 3 133 2 c108 2 132 5 132 17 0 26 51 44 76 27z m-596 -12 c0 -5 -4 -10
-10 -10 -5 0 -10 5 -10 10 0 6 5 10 10 10 6 0 10 -4 10 -10z m527 -150 c16
-27 22 -30 70 -30 40 0 55 4 60 16 10 27 52 37 79 19 26 -17 33 -62 12 -83
-21 -21 -65 -14 -86 13 -17 21 -28 25 -67 23 -42 -1 -51 2 -74 30 l-26 32
-120 3 -120 3 127 2 127 2 18 -30z m-629 -23 c2 -9 -2 -17 -8 -17 -7 0 -10 6
-7 14 3 8 2 17 -4 20 -5 2 -4 3 3 2 7 -1 14 -10 16 -19z m-45 -194 c-20 -4
-23 -11 -25 -56 l-2 -52 -3 52 c-3 44 -7 52 -26 56 -12 2 1 4 28 4 28 0 40 -2
28 -4z m115 0 c-10 -2 -28 -2 -40 0 -13 2 -5 4 17 4 22 1 32 -1 23 -4z m126
-2 c3 -4 -6 -6 -19 -3 -33 6 -55 -14 -55 -48 0 -36 22 -54 57 -46 21 5 24 4
13 -4 -53 -35 -110 48 -64 94 17 17 59 22 68 7z m96 -41 c35 0 39 3 43 28 2
15 4 0 5 -33 0 -39 -2 -51 -7 -35 -5 20 -14 26 -43 28 -35 3 -37 1 -41 -30 -2
-18 -4 -4 -4 32 0 36 2 53 4 38 4 -25 8 -28 43 -28z m188 -63 c25 -4 24 -4 -5
-6 l-33 -1 2 63 2 62 3 -57 c4 -53 6 -57 31 -61z m69 21 c-2 -18 -4 -4 -4 32
0 36 2 50 4 33 2 -18 2 -48 0 -65z m96 85 c-25 -3 -33 -9 -33 -24 0 -14 7 -19
28 -20 l27 -2 -27 -4 c-20 -3 -28 -11 -31 -31 -2 -15 -5 -1 -6 31 l-1 57 38
-2 c36 -1 36 -1 5 -5z m125 0 c-10 -2 -28 -2 -40 0 -13 2 -5 4 17 4 22 1 32
-1 23 -4z m-18 -51 c-14 -2 -31 -11 -38 -20 -11 -14 -12 -13 -10 9 2 22 5 24
37 20 30 -4 32 -6 11 -9z m-705 -1 c-21 -4 -30 -12 -30 -26 0 -14 9 -22 30
-26 l30 -7 -31 -1 c-33 -1 -44 12 -44 50 0 16 7 19 38 18 36 -1 36 -2 7 -8z
m725 -57 c0 -2 -13 -4 -30 -4 -16 0 -30 4 -30 8 0 5 14 7 30 4 17 -2 30 -6 30
-8z"/>
<path d="M1012 853 c-6 -11 -6 -27 -1 -41 7 -18 15 -23 35 -20 35 4 53 31 38
56 -16 24 -60 28 -72 5z"/>
<path d="M490 555 c0 -25 0 -48 0 -52 0 -5 15 -9 34 -11 39 -4 59 18 71 76 l7
32 -56 0 -56 0 0 -45z"/>
<path d="M368 459 c-7 -22 5 -90 16 -86 15 5 56 66 56 83 0 17 -67 19 -72 3z"/>
<path d="M456 430 c-9 -22 -16 -43 -16 -46 0 -10 61 31 87 58 l27 28 -41 0
c-38 0 -42 -2 -57 -40z"/>
<path d="M1150 681 c-16 -31 4 -63 37 -59 55 7 55 69 0 76 -18 2 -29 -3 -37
-17z"/>
<path d="M910 606 c-28 -35 11 -93 48 -70 35 22 22 84 -18 84 -10 0 -23 -7
-30 -14z"/>
<path d="M1040 441 c-16 -31 4 -63 37 -59 55 7 55 69 0 76 -18 2 -29 -3 -37
-17z"/>
</g>
</svg>
